PathFileType	4	(X/Y/Z)	s07c0401.trc
DataRate	CameraRate	NumFrames	NumMarkers	Units	OrigDataRate	OrigDataStartFrame	OrigNumFrames
200	200	5	48	mm	200	0	2000
Frame#	Time	racr			lacr			c7			jug			rlel			rdr			llel			ldr			s2			lic			ric			lasi			rasi			rpsi			lpsi			rgt			lgt			rth1			rth2			rth3			rth4			rlfc			rmfc			rsh1			rsh2			rsh3			rsh4			rlmal			rcal			rtoe			rmt5			lth1			lth2			lth4			lth3			llfc			lmfc			lsh1			lsh2			lsh3			lsh4			llmal			lcal			ltoe			lmt5			SBIKE			LBIKE			RBIKE			
		X1	Y1	Z1	X2	Y2	Z2	X3	Y3	Z3	X4	Y4	Z4	X5	Y5	Z5	X6	Y6	Z6	X7	Y7	Z7	X8	Y8	Z8	X9	Y9	Z9	X10	Y10	Z10	X11	Y11	Z11	X12	Y12	Z12	X13	Y13	Z13	X14	Y14	Z14	X15	Y15	Z15	X16	Y16	Z16	X17	Y17	Z17	X18	Y18	Z18	X19	Y19	Z19	X20	Y20	Z20	X21	Y21	Z21	X22	Y22	Z22	X23	Y23	Z23	X24	Y24	Z24	X25	Y25	Z25	X26	Y26	Z26	X27	Y27	Z27	X28	Y28	Z28	X29	Y29	Z29	X30	Y30	Z30	X31	Y31	Z31	X32	Y32	Z32	X33	Y33	Z33	X34	Y34	Z34	X35	Y35	Z35	X36	Y36	Z36	X37	Y37	Z37	X38	Y38	Z38	X39	Y39	Z39	X40	Y40	Z40	X41	Y41	Z41	X42	Y42	Z42	X43	Y43	Z43	X44	Y44	Z44	X45	Y45	Z45	X46	Y46	Z46	X47	Y47	Z47	X48	Y48	Z48	
0	0.0000	412.116125	1496.384436	-108.278168	400.217033	1478.712795	-366.017547	369.497142	1526.711635	-248.542950	348.097974	1382.930597	-243.640940	486.702229	1174.894904	18.239321	701.075918	972.094042	-35.762962	507.677007	1170.770048	-462.996374	689.353929	932.642971	-426.800651	-150.879419	1209.329663	-236.776696	-5.816180	1284.777743	-374.029090	21.617098	1250.421759	-82.984491	37.455839	1207.676508	-350.974800	41.869140	1191.196108	-103.480442	-123.036482	1244.391505	-181.735381	-123.163894	1263.322749	-286.656319	-38.464240	1101.623788	-56.060527	-35.728188	1139.189276	-423.811886	31.862147	963.732695	-44.144117	82.543030	891.565877	-51.019630	92.484813	806.746593	-51.962443	114.483429	905.097922	-63.826947	140.584942	675.580668	-84.167586	135.932769	660.810280	-182.712715	114.536160	534.556966	-57.105292	128.453359	447.963077	-76.734028	99.943770	365.661000	-74.637513	143.818587	451.000113	-113.652848	81.107752	226.994725	-82.377669	21.445735	179.470715	-108.942753	312.422748	188.145721	-124.015928	239.224170	146.000858	-53.556495	66.292600	1083.087877	-431.856709	154.359990	1084.048285	-437.059643	164.467603	1117.369540	-424.035449	232.223196	1039.813972	-440.784326	394.735177	959.517596	-421.798425	394.227582	942.447876	-319.163658	307.084610	837.351517	-430.275795	267.884986	764.696660	-404.692639	193.615066	713.110526	-407.770511	272.812860	767.514633	-364.162406	98.597398	628.112669	-398.057193	21.291707	633.101577	-362.685369	250.359526	456.852503	-361.308156	169.416526	481.325252	-425.097348	-263.631620	975.875405	-236.119656	-82.640889	79.119235	-434.974328	-82.410764	78.804760	-37.328529	
1	0.0050	412.184853	1496.069656	-108.103052	400.164414	1478.698820	-365.876657	369.626255	1526.490694	-248.334345	348.149346	1382.720755	-243.690192	486.502857	1174.455124	18.292135	700.640965	971.628176	-36.226235	507.489124	1170.756307	-463.150082	690.067011	934.349922	-430.655786	-150.865847	1209.341488	-236.766026	-5.780736	1284.769199	-374.004559	21.601263	1250.396780	-82.967740	37.452531	1207.662561	-350.941220	41.839280	1191.188476	-103.388962	-123.039545	1244.403354	-181.722283	-123.123974	1263.311691	-286.639062	-38.499342	1101.593835	-56.065197	-35.754372	1139.188529	-423.788937	31.829196	963.665076	-44.143278	82.518653	891.561423	-51.074560	92.475372	806.746029	-52.037307	114.469076	905.033283	-63.900566	140.658369	675.606300	-84.222978	135.960959	660.854796	-182.759449	114.579707	534.621510	-57.151262	128.496158	448.004374	-76.769980	99.964065	365.682455	-74.680269	143.845101	451.003198	-113.729071	81.079206	227.053838	-82.417304	21.386754	179.566095	-108.926209	312.363296	188.082088	-124.013258	239.161401	145.976275	-53.553556	66.221315	1083.078757	-431.865427	154.316705	1084.030602	-437.057944	164.425186	1117.364497	-424.039261	232.174078	1039.759704	-440.509886	394.698680	959.562770	-421.864908	394.223608	942.498901	-319.231013	307.074245	837.392425	-430.335509	267.890045	764.720389	-404.730706	193.632986	713.118064	-407.785776	272.826487	767.564396	-364.197106	98.624634	628.120415	-398.076076	21.315057	633.072709	-362.685181	250.423695	456.909782	-361.296212	169.469455	481.368333	-425.098283	-263.626795	975.865177	-236.104821	-82.659731	79.148389	-434.974922	-82.403406	78.811123	-37.334611	
2	0.0100	412.252165	1495.731319	-107.866361	400.137870	1478.705844	-365.747654	369.778328	1526.311315	-248.156665	348.227234	1382.558175	-243.688404	486.412214	1174.086263	18.295754	700.125801	971.056164	-36.763573	507.310974	1170.732368	-463.334963	690.082710	934.431645	-430.680641	-150.871763	1209.372828	-236.781543	-5.756524	1284.792687	-373.962846	21.578710	1250.382501	-82.942908	37.453964	1207.671899	-350.886181	41.820998	1191.170543	-103.375572	-123.035782	1244.431785	-181.723462	-123.097272	1263.353381	-286.644847	-38.553196	1101.592207	-56.069238	-35.774795	1139.182376	-423.769437	31.787670	963.653799	-44.135694	82.510677	891.568817	-51.098099	92.472757	806.761130	-52.071536	114.571593	904.924069	-64.110769	140.711295	675.639278	-84.233273	136.012042	660.894619	-182.787260	114.607372	534.658896	-57.172465	128.522475	448.024235	-76.773664	99.980144	365.743789	-74.693097	143.859435	451.036763	-113.753959	81.092870	227.110265	-82.409652	21.311947	179.927906	-109.174516	312.335001	188.044502	-124.015190	239.115041	145.972312	-53.557736	66.177964	1083.056427	-431.864536	154.264062	1084.037474	-437.090965	164.383667	1117.361109	-424.060806	232.115248	1039.777822	-440.541463	394.668915	959.584381	-421.913399	394.184549	942.533865	-319.286949	307.063374	837.411988	-430.350652	267.869617	764.736775	-404.752301	193.622629	713.136879	-407.814716	272.795518	767.576322	-364.200828	98.619485	628.193987	-398.043038	21.307640	633.045038	-362.687390	250.501415	456.970430	-361.276901	169.519299	481.396472	-425.095055	-263.621160	975.876132	-236.114018	-82.649464	79.146160	-434.988023	-82.397806	78.811661	-37.338812	
3	0.0150	412.307091	1495.447543	-107.654679	398.770978	1479.148404	-367.148919	369.921280	1526.130979	-248.001443	348.304869	1382.416748	-243.683206	486.384319	1173.763490	18.232653	699.621696	970.426279	-37.320304	507.160207	1170.671880	-463.500318	689.328546	932.816543	-426.685659	-150.863787	1209.282975	-236.684603	-5.335405	1284.904008	-374.257128	21.632061	1250.423609	-83.508624	37.727487	1207.150461	-351.040607	41.675758	1191.280204	-103.383586	-123.028644	1244.448694	-181.741530	-121.848798	1263.593125	-288.112962	-38.602624	1101.601057	-56.087629	-35.799919	1139.184207	-423.769391	31.745707	963.642840	-44.139129	82.478921	891.584704	-51.133035	92.493450	806.775467	-52.102708	114.553678	904.982651	-64.111872	140.792025	675.531821	-84.163348	136.028051	660.942247	-182.821836	114.633913	534.704928	-57.189687	128.790855	448.200701	-76.622498	100.007513	365.781845	-74.699145	143.897351	451.081264	-113.734962	80.784785	227.652631	-82.075568	21.372193	179.652723	-108.961022	312.325375	187.980751	-123.996778	239.353203	145.281612	-54.164317	66.121134	1083.067800	-431.874709	154.361918	1084.285547	-437.443142	164.120532	1117.754293	-424.293620	231.939710	1040.346689	-440.918700	396.885470	958.441905	-418.655425	394.167246	942.514294	-319.297029	307.019737	837.431944	-430.375360	268.202171	764.373506	-404.830610	193.506394	713.014167	-407.946323	273.100539	767.482978	-364.062336	98.642334	628.100059	-398.054737	21.275671	632.979929	-362.649185	250.434019	456.828966	-361.223280	169.493349	476.863000	-417.388091	-263.779819	975.983454	-236.698997	-82.655276	79.142236	-434.982160	-82.389913	78.810126	-37.335960	
4	0.0200	412.435043	1495.395943	-107.284125	398.258460	1478.515816	-365.536144	370.081811	1525.878618	-247.785449	354.848739	1381.172978	-236.453294	486.585447	1173.716878	18.540303	701.805098	968.670490	-32.995203	508.620038	1168.530422	-455.718263	689.139099	931.689061	-424.732498	-151.674930	1209.508452	-236.536477	-5.265838	1285.065062	-374.203843	21.477649	1250.721145	-83.271069	51.884593	1206.821249	-344.336023	50.296078	1189.957917	-95.764884	-123.122279	1244.309931	-181.665086	-121.872970	1263.634100	-288.092626	-38.888073	1101.819007	-55.813067	-35.918686	1139.008573	-423.901409	31.585130	963.805222	-44.056731	82.392135	891.808899	-51.027773	92.419561	807.061487	-51.997822	114.342336	905.302150	-62.847879	140.613356	676.034771	-83.898376	136.101161	660.920455	-182.797666	114.512046	534.921045	-57.037628	128.748011	448.468381	-76.483838	99.918138	366.177339	-74.309068	143.874984	451.338412	-113.679229	81.113145	227.446718	-82.182169	20.714204	179.995607	-108.948423	312.067974	188.090396	-123.168536	239.287012	145.478440	-54.160740	68.949181	1081.247511	-426.465617	154.171421	1084.605061	-437.302940	167.925898	1116.169860	-418.760623	231.853700	1040.518213	-441.002746	397.934630	958.012660	-416.971922	394.015064	942.959906	-319.022397	309.674025	835.462866	-425.894501	268.183822	764.506234	-404.747331	197.312287	710.282331	-401.490025	280.212628	766.934479	-356.958922	98.414287	628.199731	-397.969018	21.155285	632.920244	-362.813561	251.980028	454.540350	-354.854395	171.823847	475.194813	-413.917530	-263.980692	976.007875	-237.028596	-82.490001	79.252700	-434.877646	-82.407546	79.208808	-36.899378	
